<svg xmlns="http://www.w3.org/2000/svg" width="23.245" height="23.245" viewBox="0 0 23.245 23.245"><path d="M10.078-.016a10.078,10.078,0,1,0,0,20.156,9.961,9.961,0,0,0,4.78-1.181,2.88,2.88,0,0,0,.374.374l2.879,2.879a2.937,2.937,0,1,0,4.146-4.146l-2.879-2.879a2.88,2.88,0,0,0-.461-.374,9.943,9.943,0,0,0,1.267-4.78A10.089,10.089,0,0,0,10.107-.045Zm0,2.879a7.165,7.165,0,0,1,7.2,7.2,7.221,7.221,0,0,1-1.9,4.953l-.086.086a2.879,2.879,0,0,0-.374.374,7.205,7.205,0,0,1-4.866,1.814,7.2,7.2,0,0,1,0-14.4Z" transform="translate(0 0.045)" fill="#3c3c3c"/></svg>