<svg xmlns="http://www.w3.org/2000/svg" width="23" height="27.568" viewBox="0 0 23 27.568"><g transform="translate(-85 -254)"><path d="M96.326,267.28a6.644,6.644,0,1,0-4.694-1.946A6.427,6.427,0,0,0,96.326,267.28Z" fill="#3c3c3c"/><path d="M107.944,275.2a16.309,16.309,0,0,0-.223-1.742,13.68,13.68,0,0,0-.429-1.751,8.663,8.663,0,0,0-.719-1.633,6.161,6.161,0,0,0-1.086-1.415,4.783,4.783,0,0,0-1.56-.98,5.389,5.389,0,0,0-1.991-.36,2.022,2.022,0,0,0-1.079.457c-.323.211-.7.455-1.124.725a6.423,6.423,0,0,1-1.455.641,5.657,5.657,0,0,1-3.558,0,6.434,6.434,0,0,1-1.454-.641c-.418-.267-.8-.511-1.125-.725a2.02,2.02,0,0,0-1.079-.458,5.388,5.388,0,0,0-1.99.361,4.793,4.793,0,0,0-1.56.98,6.131,6.131,0,0,0-1.085,1.415,8.605,8.605,0,0,0-.72,1.633,13.678,13.678,0,0,0-.429,1.751,16.525,16.525,0,0,0-.223,1.743c-.036.527-.055,1.075-.055,1.628a4.574,4.574,0,0,0,1.36,3.463,4.89,4.89,0,0,0,3.5,1.278h13.274a4.892,4.892,0,0,0,3.5-1.278,4.572,4.572,0,0,0,1.36-3.463C108,276.271,107.981,275.723,107.944,275.2Z" fill="#3c3c3c"/></g></svg>